<svg viewBox="0 0 100 100" xmlns="http://www.w3.org/2000/svg" xmlns:xlink="http://www.w3.org/1999/xlink" width="100.000000" height="100.000000" fill="none" customFrame="#000000">
	<path id="" d="M43.6 29.8C44 29.9333 44.6 30.0667 45.4 30.2C46.8667 30.6 48.3 31.3667 49.7 32.5L50 32.6L49.9 32.7L22 32.7L22 29.8L43.6 29.8ZM19.4 29.8L19.4 32.7L0 32.7L0 29.8L19.4 29.8ZM100 29.8L100 32.7L83.3 32.7L84.4 29.8L100 29.8ZM71.1 29.8L72 32.3C72 32.5 72.0333 32.6333 72.1 32.7L55.6 32.7L55.6 29.9L71.1 29.8ZM77.8 48.5C78 47.8333 78.2667 47.0667 78.6 46.2C78.6 46 78.7 45.9 78.9 45.9L94.5 45.9L94.5 48.7L86.3 48.7L86.3 46.8L86.2 46.8L86 47.5C85.8 47.9667 85.6667 48.3 85.6 48.5C85.6 48.7 85.5 48.8 85.3 48.8L70.4 48.8C70.1333 48.8 69.9667 48.6667 69.9 48.4C69.8333 47.9333 69.6333 47.4 69.3 46.8L69.3 48.8L61.1 48.8L61.1 45.9L76.5 45.9C76.7 45.9 76.8333 46 76.9 46.2C77.0333 46.6 77.2333 47.2 77.5 48L77.7 48.5L77.8 48.5ZM22 38.1L22 35.2L51.8 35.2C52.0667 35.2 52.2333 35.3 52.3 35.5L53 37.7L53 38.1L22 38.1ZM53.1 62C53.1 62.1333 53.0667 62.3333 53 62.6C52.8 63.4667 52.5667 64.1 52.3 64.5C52.1 64.7 51.9 64.8 51.7 64.8L22 64.8L22 62L53.1 62ZM22 70.2L22 67.3L50.1 67.3L50.1 67.4C49.9 67.6 49.5333 67.9 49 68.3C47.3333 69.4333 45.4333 70.0667 43.3 70.2L22 70.2ZM27.6 54.1L27.6 51.3L48.9 51.3C49.1 51.3 49.2333 51.3333 49.3 51.4C50.3667 52.3333 51.1333 53.2 51.6 54C51.6667 54 51.7 54.0333 51.7 54.1L27.6 54.1ZM27.6 48.8L27.6 45.9L51.6 45.9L51.4 46.2C50.9333 47.0667 50.2667 47.8667 49.4 48.6L49 48.8L27.6 48.8ZM0 38.1L0 35.2L19.4 35.2L19.4 38.1L0 38.1ZM19.4 67.3L19.4 70.2L0 70.2L0 67.3L19.4 67.3ZM19.4 62L19.4 64.8L0 64.8L0 62L19.4 62ZM81.5 38.1C81.5 37.9 81.5333 37.7667 81.6 37.7C81.8 37.0333 82.0667 36.3 82.4 35.5C82.4 35.3 82.5 35.2 82.7 35.2L100 35.2L100 38.1L81.5 38.1ZM74 38.1L55.6 38.1L55.6 35.2L72.7 35.2C72.9 35.2 73.0333 35.3 73.1 35.5L74 38.1ZM94.5 40.6L94.5 43.5L79.5 43.5C79.7 43.0333 79.9667 42.2667 80.3 41.2L80.5 40.7L80.7 40.6L94.5 40.6ZM61.1 43.5L61.1 40.6L74.5 40.6C74.7667 40.6 74.9333 40.7333 75 41L75.9 43.5L61.1 43.5ZM100 70.2L86.3 70.2L86.3 67.3L100 67.3L100 70.2ZM69.3 67.3L69.3 70.2L55.6 70.2L55.6 67.3L69.3 67.3ZM86.3 64.8L86.3 61.9L100 61.9L100 64.8L86.3 64.8ZM69.3 62L69.3 64.8L55.6 64.8L55.6 62L69.3 62ZM71 51.3L84.6 51.3C84.3333 52.2333 84.1 52.9333 83.9 53.4L83.9 53.4C83.7667 53.7333 83.6333 53.9333 83.5 54C83.4333 54.0667 83.2333 54.1 82.9 54.1C78.1667 54.1 74.6333 54.1333 72.3 54.2C72.0333 54.2 71.9 54.0667 71.9 53.8L71 51.3ZM72.8 56.7L82.7 56.7C82.6333 57.0333 82.4667 57.5333 82.2 58.2L81.8 59.3C81.8 59.4333 81.7 59.5 81.5 59.5L74.1 59.5C73.9 59.5 73.8 59.4667 73.8 59.4C73.4 58.2 73.0667 57.3 72.8 56.7ZM53.5 59.5L44.5 59.5L44.5 56.7L44.8 56.7C48.2667 56.7 50.8667 56.6667 52.6 56.6C52.8667 56.6 53.0333 56.7333 53.1 57L53.5 59.5ZM44.3 43.5L44.3 40.6L53.2 40.6C53.2 41.5333 53.1 42.4667 52.9 43.4L52.7 43.5L44.3 43.5ZM36.1 56.7L36.1 59.5L27.7 59.5L27.7 56.7L36.1 56.7ZM13.8 59.5L5.5 59.5L5.5 56.7L13.8 56.7L13.8 59.5ZM69.3 56.7L69.3 59.5L61.1 59.5L61.1 56.7L69.3 56.7ZM36 40.6L36 43.5L27.6 43.5L27.6 40.6L36 40.6ZM5.4 48.7L5.4 45.9L13.8 45.9L13.8 48.7L5.4 48.7ZM5.5 40.6L13.8 40.6L13.8 43.5L5.5 43.5L5.5 40.6ZM13.8 54.1L5.5 54.1L5.5 51.3L13.8 51.3L13.8 54.1ZM94.5 56.7L94.5 59.5L86.3 59.5L86.3 56.7L94.5 56.7ZM61.1 54.1L61.1 51.3L69.3 51.3L69.3 54.1L61.1 54.1ZM86.3 54.1L86.3 51.3L94.5 51.3L94.5 54.1L86.3 54.1ZM79.9 64.8L75.8 64.8L75.7 64.7L74.7 62L80.9 62C80.5667 62.7333 80.2333 63.6667 79.9 64.8ZM76.6 67.3L79 67.3L78.4 69.1C78.2667 69.5 78.1333 69.8 78 70C78 70.1333 77.9333 70.2 77.8 70.2C77.6667 70.2 77.6 70.1333 77.6 70C77.3333 69.4 77 68.5 76.6 67.3Z" fill="rgb(16,16,16)" fill-rule="nonzero" />
</svg>
