<svg width="162" height="38" viewBox="0 0 162 38" fill="none" xmlns="http://www.w3.org/2000/svg">
<path d="M75.2145 27.4007C75.2145 27.4007 75.2106 27.4083 75.2087 27.412C75.0107 27.85 74.3802 27.8538 74.1745 27.4177C74.1629 27.395 74.1533 27.3724 74.1418 27.3497L66.9423 10.284C66.8539 10.0763 66.6482 9.94038 66.4175 9.94038H60.0928C59.6852 9.94038 59.4103 10.3501 59.5718 10.7164L71.1428 37.2354C71.2312 37.4393 71.4369 37.5733 71.6638 37.5733H77.4772C77.704 37.5733 77.9097 37.4411 77.9981 37.2354L89.5711 10.7164C89.7306 10.3482 89.4577 9.94038 89.0501 9.94038H82.9042C82.6735 9.94038 82.4678 10.0763 82.3793 10.2859L75.2126 27.4026L75.2145 27.4007Z" fill="#441A7C"/>
<path d="M98.3854 9.93849H92.647C92.3337 9.93849 92.0798 10.1879 92.0798 10.4955V37.0145C92.0798 37.3221 92.3337 37.5714 92.647 37.5714H98.3854C98.6986 37.5714 98.9525 37.3221 98.9525 37.0145V10.4955C98.9525 10.1879 98.6986 9.93849 98.3854 9.93849Z" fill="#441A7C"/>
<path d="M125.351 11.0826C123.04 10.0404 120.27 9.50991 117.117 9.50991C113.965 9.50991 111.227 10.0386 108.905 11.0807C106.492 12.1645 104.616 13.7976 103.324 15.9386C102.055 18.0437 101.411 20.6737 101.411 23.755C101.411 26.8362 102.053 29.436 103.322 31.5506C104.614 33.7048 106.492 35.3473 108.905 36.4292C111.225 37.4714 113.988 38 117.117 38C120.247 38 123.042 37.4714 125.351 36.4292C127.752 35.3455 129.623 33.7048 130.913 31.5506C132.181 29.4341 132.824 26.8116 132.824 23.755C132.824 20.6983 132.18 18.0437 130.911 15.9386C129.621 13.7995 127.75 12.1663 125.351 11.0826ZM125.843 23.3622V24.1495C125.843 25.5316 125.634 26.7172 125.222 27.6764C124.82 28.609 124.271 29.351 123.538 29.9476C122.789 30.5593 121.881 31.0181 120.845 31.3146C119.745 31.6298 118.49 31.7884 117.117 31.7884C115.745 31.7884 114.489 31.628 113.39 31.3146C112.354 31.0181 111.446 30.5575 110.697 29.9476C109.964 29.351 109.414 28.609 109.012 27.6764C108.599 26.7191 108.392 25.5316 108.392 24.1514V23.3641C108.392 21.9802 108.601 20.787 109.016 19.8147C109.416 18.8763 109.962 18.1381 110.687 17.5585C111.44 16.9562 112.35 16.4974 113.39 16.201C114.491 15.8857 115.745 15.7271 117.117 15.7271C118.49 15.7271 119.743 15.8876 120.845 16.201C121.885 16.4993 122.794 16.9562 123.548 17.5585C124.273 18.14 124.819 18.8782 125.218 19.8147C125.632 20.787 125.843 21.9821 125.843 23.3641V23.3622Z" fill="#441A7C"/>
<path d="M155.239 10.4955V24.5064C155.239 25.0237 154.583 25.2616 154.241 24.8689L141.365 10.133C141.257 10.0102 141.1 9.93849 140.934 9.93849H135.853C135.54 9.93849 135.286 10.1877 135.286 10.4955V37.0145C135.286 37.3222 135.54 37.5714 135.853 37.5714H141.482C141.795 37.5714 142.049 37.3222 142.049 37.0145V22.709C142.049 22.1917 142.705 21.9538 143.047 22.3465L156.139 37.3751C156.246 37.4997 156.404 37.5695 156.569 37.5695H161.433C161.746 37.5695 162 37.3203 162 37.0126V10.4955C162 10.1877 161.746 9.93849 161.433 9.93849H155.804C155.491 9.93849 155.237 10.1877 155.237 10.4955H155.239Z" fill="#441A7C"/>
<path d="M54.6024 11.8057C54.6004 11.768 54.6004 11.7283 54.5947 11.6868C54.5927 11.6585 54.587 11.6283 54.5851 11.5999C54.5793 11.5678 54.5754 11.5376 54.5697 11.5074C54.562 11.4716 54.5543 11.4395 54.5466 11.4055C54.5389 11.379 54.5351 11.3545 54.5274 11.3281C54.5158 11.2941 54.5043 11.2582 54.4928 11.2242C54.4832 11.1997 54.4755 11.1751 54.4659 11.1525C54.4505 11.1204 54.4389 11.0902 54.4236 11.0581C54.412 11.0316 54.3986 11.0071 54.387 10.9807C54.3717 10.9542 54.3544 10.9278 54.3409 10.8995C54.3236 10.8731 54.3063 10.8466 54.289 10.8202C54.2736 10.7956 54.2563 10.7749 54.2429 10.7503C54.2198 10.722 54.2006 10.6956 54.1794 10.6654C54.1621 10.6465 54.1448 10.6276 54.1275 10.6068C54.1025 10.5804 54.0814 10.554 54.0545 10.5275C54.0352 10.5087 54.016 10.4917 53.9949 10.4728C53.9699 10.4483 53.9449 10.4275 53.918 10.4029C53.893 10.3841 53.868 10.3652 53.8411 10.3444C53.818 10.3274 53.7949 10.3085 53.77 10.2915C53.7373 10.2708 53.7027 10.2481 53.67 10.2292C53.6546 10.2198 53.6412 10.2104 53.6258 10.2009C53.62 10.199 53.6162 10.1953 53.6104 10.1934C53.5719 10.1707 53.5316 10.1518 53.4931 10.1348C53.4739 10.1254 53.4547 10.116 53.4374 10.1084C53.4008 10.0914 53.3605 10.0763 53.324 10.065C53.299 10.0555 53.2778 10.0461 53.2528 10.0386C53.224 10.0291 53.1913 10.0216 53.1586 10.014C53.1259 10.0046 53.0952 9.99702 53.0625 9.98947C53.0394 9.9838 53.0164 9.98192 52.9914 9.97814C52.9529 9.97059 52.9106 9.96303 52.8703 9.95926C52.8472 9.95737 52.828 9.95737 52.8087 9.95737C52.7645 9.95171 52.7203 9.94982 52.6742 9.94982C52.6684 9.94982 52.6646 9.94793 52.6588 9.94793H34.2478C34.2478 9.94793 34.2305 9.94793 34.2228 9.94982C34.2132 9.94982 34.2055 9.94982 34.1959 9.95171C34.1536 9.95171 34.1152 9.95359 34.0729 9.95737C34.0441 9.95926 34.0171 9.96492 33.9864 9.96681C33.9537 9.97248 33.9191 9.97625 33.8883 9.98191C33.8537 9.98947 33.821 9.99702 33.7903 10.0046C33.7634 10.0121 33.7365 10.0197 33.7095 10.0272C33.673 10.0367 33.6403 10.048 33.6057 10.0593C33.5807 10.0688 33.5538 10.0782 33.5288 10.0876C33.4962 10.099 33.4654 10.1141 33.4327 10.1254C33.4058 10.1367 33.3808 10.1518 33.3539 10.1632L33.2732 10.2066C33.2443 10.2236 33.2174 10.2406 33.1867 10.2576C33.1636 10.2727 33.1424 10.2897 33.1194 10.3029C33.0905 10.3236 33.0598 10.3463 33.0309 10.369C33.0117 10.3841 32.9944 10.4011 32.9752 10.4143C32.9464 10.4407 32.9194 10.4652 32.8887 10.4917C32.8714 10.5087 32.8541 10.5276 32.8368 10.5445C32.8118 10.571 32.7868 10.5974 32.7637 10.6238C32.7445 10.6446 32.7253 10.6692 32.708 10.6937C32.6887 10.7182 32.6695 10.7428 32.6522 10.7692C32.6292 10.8013 32.6099 10.8315 32.5888 10.8636C32.5792 10.8806 32.5696 10.8957 32.5599 10.9089L20.418 31.7337L5.19821 3.81378H19.1972L24.976 14.3999L25.1279 14.6793L27.3925 10.756L22.077 1.00253C22.077 1.00253 22.0751 0.99687 22.0712 0.994982C22.0712 0.994982 22.0693 0.98743 22.0655 0.985542C22.0501 0.960998 22.0386 0.936454 22.0232 0.913797C22.0078 0.894917 21.9963 0.872261 21.9847 0.853381C21.9617 0.825061 21.9424 0.794853 21.9213 0.766533C21.904 0.741988 21.8867 0.717444 21.8675 0.696676L21.8598 0.689124C21.8406 0.66458 21.8213 0.643812 21.8002 0.621156C21.7829 0.600388 21.7637 0.583395 21.7444 0.562627C21.7387 0.555075 21.7329 0.551299 21.7252 0.543747C21.7079 0.526755 21.6887 0.507875 21.6695 0.490883C21.6522 0.473891 21.6349 0.458787 21.6156 0.445571C21.606 0.438019 21.5964 0.428579 21.5868 0.421026C21.5676 0.405922 21.5503 0.38893 21.531 0.375714C21.5041 0.356834 21.4791 0.337954 21.4522 0.320962C21.433 0.309634 21.4138 0.296418 21.3926 0.28509C21.3753 0.273762 21.3561 0.260546 21.3369 0.251105C21.3273 0.245441 21.3138 0.241665 21.3042 0.234113C21.2965 0.228449 21.2869 0.224673 21.2792 0.222785C21.2696 0.217121 21.26 0.211457 21.2504 0.205793C21.2427 0.203905 21.235 0.198241 21.2273 0.194465L21.2215 0.192577C21.1927 0.181249 21.1619 0.166145 21.1331 0.154817C21.1254 0.152929 21.1177 0.149153 21.1139 0.145377C21.1081 0.145377 21.1043 0.143489 21.1043 0.143489C21.0985 0.141601 21.0947 0.137825 21.0889 0.137825C21.0601 0.126497 21.0331 0.113281 21.0024 0.103841H21.0005C21.0005 0.103841 20.9909 0.101953 20.9889 0.0981766L20.9812 0.0962886C20.9755 0.0962886 20.9697 0.0944006 20.9639 0.0906245C20.9447 0.0849605 20.9255 0.0792965 20.9043 0.0736324C20.8947 0.0717444 20.8813 0.0660804 20.8717 0.0641924C20.8351 0.0547523 20.7948 0.0453123 20.7563 0.0377602C20.7563 0.0377602 20.7544 0.0358722 20.7505 0.0358722H20.7486C20.7121 0.0283202 20.6717 0.0207681 20.6333 0.0169921C20.6333 0.0169921 20.6314 0.0163628 20.6275 0.0151041C20.6102 0.0151041 20.591 0.0132161 20.5737 0.00944006C20.566 0.00944006 20.5564 0.00755204 20.5468 0.00755204C20.541 0.00755204 20.5352 0.00566403 20.5295 0.00566403C20.5102 0.00377602 20.491 0.00377602 20.468 0.00377602C20.4526 0.00188801 20.4353 0.00188801 20.418 0.00188801C20.3987 3.53973e-10 20.3795 0 20.3584 0H1.97048C1.89935 0 1.82822 0.00188801 1.75709 0.00944006L1.71287 0.0169921C1.66673 0.0226561 1.61675 0.0283202 1.57061 0.0377602C1.54178 0.0434243 1.51486 0.0490883 1.4841 0.0566403C1.45142 0.0641924 1.42066 0.0717444 1.38606 0.0811845C1.34377 0.0962886 1.30532 0.109505 1.26303 0.124609C1.24573 0.132161 1.2265 0.135937 1.2092 0.143489C1.1496 0.168033 1.09578 0.194465 1.04003 0.222785C1.04003 0.222785 1.0381 0.223415 1.03426 0.224673C0.918914 0.28509 0.813182 0.354946 0.711294 0.434243C0.674768 0.466339 0.640164 0.496547 0.605561 0.530531C0.595949 0.539971 0.582492 0.549411 0.57288 0.558851C0.540199 0.590948 0.50944 0.624932 0.478681 0.660804C0.467147 0.672132 0.455612 0.685348 0.446 0.696676C0.419086 0.724996 0.396017 0.758981 0.372948 0.791077C0.361414 0.809957 0.346035 0.826949 0.330655 0.845829C0.313354 0.872261 0.297974 0.898693 0.280673 0.925126C0.265293 0.951558 0.247992 0.97799 0.23069 1.00631C0.221078 1.02519 0.211466 1.04785 0.201854 1.06673C0.184552 1.1026 0.16725 1.13847 0.149948 1.17623C0.144181 1.19134 0.140336 1.20455 0.134569 1.21966C0.117267 1.26308 0.0999656 1.3065 0.0845863 1.34993C0.0826638 1.36126 0.078819 1.37447 0.0749742 1.3858C0.0634397 1.43489 0.0499828 1.4802 0.0403707 1.5274C0.0288362 1.57838 0.023069 1.62558 0.0153793 1.67655C0.0153793 1.68788 0.0134569 1.69732 0.00961207 1.71054C0.00192241 1.77284 0 1.83892 0 1.90312V1.91444C0 1.97486 0.00576724 2.03339 0.00961207 2.0938C0.0115345 2.11268 0.0153793 2.12968 0.0173017 2.14856C0.0249914 2.19198 0.0288362 2.23541 0.0365259 2.27694C0.0442155 2.30904 0.0538276 2.33925 0.0615173 2.36945C0.0692069 2.40155 0.0730518 2.42987 0.0845863 2.45819C0.0999656 2.50162 0.113422 2.54315 0.130724 2.58469C0.136491 2.60168 0.140336 2.61867 0.148026 2.63566C0.173017 2.69042 0.199931 2.74706 0.228767 2.79992L0.23069 2.80747L0.238379 2.82258L18.6436 36.5783C18.6551 36.6029 18.6705 36.6236 18.682 36.6482C18.6916 36.6633 18.6993 36.6765 18.7089 36.6916C18.7359 36.735 18.7685 36.7785 18.7993 36.82C18.8089 36.8351 18.8185 36.8483 18.832 36.8615C18.857 36.8955 18.8839 36.9276 18.9127 36.9559C18.9223 36.9673 18.9319 36.9805 18.9416 36.9899C18.98 37.0315 19.0223 37.0692 19.0646 37.1089C19.0704 37.1107 19.0742 37.1164 19.0819 37.1202C19.1203 37.1561 19.1626 37.1882 19.2068 37.2184C19.2145 37.224 19.2241 37.2297 19.2318 37.2354C19.2818 37.2712 19.3318 37.3033 19.3876 37.3316L19.3895 37.3335C19.3991 37.3411 19.4087 37.3449 19.4183 37.3505C19.4452 37.3656 19.4702 37.377 19.4971 37.3883C19.5164 37.3977 19.5356 37.4072 19.5567 37.4166C19.574 37.4242 19.5913 37.4317 19.6106 37.4374C19.6394 37.4487 19.6702 37.4619 19.699 37.4714C19.7086 37.477 19.7182 37.4789 19.7259 37.4808C19.7643 37.4959 19.8047 37.5072 19.8432 37.5167H19.8451C20.0123 37.562 20.1834 37.5846 20.3507 37.5846H20.3565C20.4372 37.5846 20.5218 37.579 20.6044 37.5695L20.6064 37.5676C20.6448 37.562 20.6852 37.5582 20.7236 37.5488C20.7294 37.5488 20.7332 37.5488 20.739 37.5469C20.7736 37.5393 20.8082 37.5318 20.8428 37.5223C20.8524 37.5223 20.8601 37.5167 20.8697 37.5167C20.8986 37.5072 20.9293 37.4997 20.9582 37.4902C20.9735 37.4846 20.9851 37.4808 21.0005 37.4751C21.0235 37.4657 21.0466 37.4581 21.0697 37.4487C21.0889 37.4412 21.1081 37.4336 21.1293 37.4279C21.1466 37.4204 21.1639 37.4109 21.1792 37.4034C21.2042 37.3939 21.2292 37.3807 21.2504 37.3694C21.2581 37.3637 21.2658 37.3619 21.2754 37.3581C21.2754 37.3581 21.2811 37.3562 21.2831 37.3524C21.3369 37.3241 21.3907 37.292 21.4426 37.258C21.4426 37.258 21.4484 37.2523 21.4522 37.2505C21.4984 37.2221 21.5426 37.1882 21.5868 37.1523C21.5945 37.1466 21.6022 37.141 21.6099 37.1353C21.6522 37.0994 21.6964 37.0598 21.7348 37.022L21.7598 36.9975C21.7925 36.9635 21.8213 36.9295 21.8502 36.8955C21.8598 36.8842 21.8694 36.871 21.879 36.8596C21.9136 36.8181 21.9463 36.7747 21.9751 36.7313C21.9828 36.7199 21.9905 36.7086 21.9982 36.6973C22.0136 36.6727 22.0309 36.6482 22.0443 36.6218L35.3686 13.7674H49.2984L37.639 33.7633H29.0958L27.0119 37.3373L26.8677 37.5828H38.7693C38.802 37.5828 38.8366 37.5828 38.8693 37.5809H38.8847C38.8962 37.579 38.9078 37.579 38.9193 37.579H38.9212C38.9308 37.5771 38.9404 37.5771 38.9539 37.5733C39.0096 37.5676 39.0692 37.562 39.1269 37.5488C39.1461 37.5469 39.1634 37.5412 39.1807 37.5393C39.2942 37.5148 39.4037 37.4808 39.5133 37.4374C39.5191 37.4355 39.5229 37.4355 39.5287 37.4317C39.5575 37.4204 39.5844 37.4072 39.6152 37.394C39.6229 37.3921 39.6267 37.3864 39.6344 37.3845C39.6633 37.3694 39.694 37.3562 39.7229 37.3392C39.7229 37.3392 39.7286 37.3373 39.7306 37.3335L39.7382 37.3316C39.7382 37.3316 39.744 37.326 39.7479 37.326C39.7767 37.309 39.8036 37.292 39.8305 37.275L39.8382 37.2675C39.8767 37.2429 39.9151 37.2165 39.9516 37.19L39.9536 37.1882C39.9882 37.1617 40.0247 37.1334 40.0593 37.1032C40.0824 37.0843 40.1016 37.0673 40.1208 37.0484C40.1208 37.0484 40.1227 37.0466 40.1227 37.0428C40.1304 37.0371 40.1343 37.0333 40.1419 37.0258C40.1419 37.0258 40.1439 37.0239 40.1477 37.0239C40.1535 37.0163 40.1593 37.0088 40.1669 37.0031C40.2784 36.8899 40.3765 36.7634 40.4591 36.6218L54.3447 12.8064C54.3447 12.8064 54.3505 12.7951 54.3544 12.7894C54.3736 12.7535 54.3928 12.7139 54.4101 12.678C54.4197 12.6591 54.4293 12.6402 54.4389 12.6176C54.4543 12.5836 54.4678 12.5477 54.4812 12.5119C54.4909 12.4873 54.5005 12.4628 54.5082 12.4401C54.5178 12.4118 54.5255 12.3797 54.5332 12.3514C54.5428 12.3174 54.5524 12.2853 54.5581 12.2551C54.5639 12.2343 54.5677 12.2098 54.5697 12.1852C54.5774 12.1437 54.5851 12.1059 54.5889 12.0663C54.5908 12.0436 54.5908 12.0247 54.5947 12.004C54.5966 11.9606 54.6004 11.919 54.6004 11.8756C54.6004 11.868 54.6024 11.8643 54.6024 11.8586C54.6024 11.8397 54.6004 11.8227 54.6004 11.8057H54.6024Z" fill="#C8A8FA"/>
</svg>
