<svg viewBox="0 0 80 80" xmlns="http://www.w3.org/2000/svg" xmlns:xlink="http://www.w3.org/1999/xlink" width="80.000000" height="80.000000" fill="none" customFrame="#000000">
	<defs>
		<clipPath id="clipPath_1">
			<rect width="32.000000" height="32.000000" x="24.000000" y="24.000000" fill="rgb(255,255,255)" />
		</clipPath>
	</defs>
	<g id="icon">
		<circle id="Ellipse 2509" cx="40" cy="40" r="40" fill="rgb(228.09,230.697,235.91)" />
		<g id="v6-icon" customFrame="url(#clipPath_1)">
			<rect id="v6-icon" width="32.000000" height="32.000000" x="24.000000" y="24.000000" />
			<path id="icon" d="M40 24.375L40.6875 24.6875L53.6875 29.6875L54.875 30.125L54.9375 31.4375C55.125 34.5 54.625 39.25 52.625 43.875C50.5625 48.5625 46.9375 53.25 40.75 55.875L40 56.1875L39.1875 55.875C33.0625 53.25 29.375 48.5625 27.3125 43.875C25.3125 39.25 24.8125 34.5 25 31.4375L25.0625 30.125L26.3125 29.6875L39.25 24.6875L40 24.375ZM47.0625 37.0625L48.125 36L46 33.9375L44.9375 35L38 41.9375L35.0625 39L34 37.9375L31.875 40L32.9375 41.0625L36.9375 45.0625L38 46.125L39.0625 45.0625L47.0625 37.0625Z" fill="rgb(147,85,247)" fill-rule="nonzero" />
		</g>
	</g>
</svg>
