<svg viewBox="0 0 80 80" xmlns="http://www.w3.org/2000/svg" xmlns:xlink="http://www.w3.org/1999/xlink" width="80.000000" height="80.000000" fill="none" customFrame="#000000">
	<defs>
		<clipPath id="clipPath_0">
			<rect width="40.000000" height="32.000000" x="20.000000" y="24.000000" fill="rgb(255,255,255)" />
		</clipPath>
	</defs>
	<g id="icon">
		<circle id="Ellipse 2509" cx="40" cy="40" r="40" fill="rgb(228.09,230.697,235.91)" />
		<g id="v6-icon" customFrame="url(#clipPath_0)">
			<rect id="v6-icon" width="40.000000" height="32.000000" x="20.000000" y="24.000000" />
			<path id="icon" d="M48.0625 42.625C46.8125 44.3125 45.5625 46.0625 45 48L35 48C34.375 46.0625 33.125 44.3125 31.875 42.625C31.875 42.625 31.875 42.625 31.875 42.625C31.875 42.625 31.875 42.625 31.875 42.625C31.5625 42.1875 31.25 41.75 30.9375 41.3125C29.6875 39.5 29 37.375 29 35C29 28.9375 33.875 24 40 24C46.0625 24 51 28.9375 51 35C51 37.375 50.25 39.5 49 41.3125C48.6875 41.75 48.375 42.1875 48.0625 42.625C48.0625 42.625 48.0625 42.625 48.0625 42.625C48.0625 42.625 48.0625 42.625 48.0625 42.625L48.0625 42.625ZM35 56L35 50L45 50L45 56L35 56ZM40 30L40 28C36.125 28 33 31.1875 33 35L35 35C35 32.25 37.1875 30 40 30ZM25.4375 25L25.8125 25.25L27.3125 26.25L28.5625 27.125L26.875 29.625L25.625 28.75L24.125 27.75L23.75 27.5L22.5 26.6875L24.1875 24.1875L25.4375 25ZM56.1875 27.5L55.8125 27.75L54.3125 28.75L53.0625 29.625L51.375 27.125L52.625 26.25L54.125 25.25L54.5 25L55.75 24.1875L57.4375 26.6875L56.1875 27.5ZM21.5 34L24.5 34L26 34L26 37L24.5 37L21.5 37L20 37L20 34L21.5 34ZM55.5 34L58.5 34L60 34L60 37L58.5 37L55.5 37L54 37L54 34L55.5 34ZM27.3125 44.75L25.8125 45.75L25.4375 46L24.1875 46.875L22.5 44.375L23.75 43.5L24.125 43.25L25.625 42.25L26.875 41.4375L28.5625 43.9375L27.3125 44.75L27.3125 44.75ZM54.3125 42.3125L55.8125 43.3125L56.1875 43.5625L57.4375 44.375L55.75 46.875L54.5 46L54.125 45.75L52.625 44.75L51.375 43.9375L53.0625 41.4375L54.3125 42.3125Z" fill="rgb(147,85,247)" fill-rule="nonzero" />
		</g>
	</g>
</svg>
