<svg viewBox="0 0 80 22.7273" xmlns="http://www.w3.org/2000/svg" xmlns:xlink="http://www.w3.org/1999/xlink" width="80.000000" height="22.727295" fill="none" customFrame="#000000">
	<path id="Make" d="M7.34506 -0.000244141L6.27237 2.86656L8.18011 3.50663L9.25279 0.639819L7.34506 -0.000244141ZM2.11513 0.644777L0.683986 1.99996L2.95515 4.15058L4.3863 2.7954L2.11513 0.644777ZM54.9487 19.1743L56.8126 17.36L56.8166 17.3562L61.0405 22.5263L65.7364 22.5263L59.6726 14.9322L65.2404 9.34546L60.6165 9.34546L54.9487 14.6367L54.9487 4.34963L51.0728 4.34963L51.0728 22.5301L54.9487 22.5301L54.9487 19.1743ZM4.65005 4.39887L5.08604 6.44038L6.30601 12.1218L8.28995 11.7392L7.24198 6.85323L12.4018 7.84558L12.8058 5.96693L6.80599 4.81172L4.65005 4.39887ZM3.02712 5.93324L0 6.95L0.676605 8.75625L3.70373 7.7395L3.02712 5.93324ZM69.8083 17.0153L79.924 17.0153L79.924 17.0116C79.952 16.6934 80 16.2768 80 15.9813C80 11.7468 77.1161 9.14851 73.0402 9.14851C68.9643 9.14851 65.9084 12.0157 65.9084 15.9359C65.9084 19.856 68.9163 22.7232 73.5402 22.7232C75.9481 22.7232 77.8121 21.9884 79.056 20.5908L76.9921 18.3864C76.0721 19.2424 75.0521 19.6591 73.6362 19.6591C71.5962 19.6591 70.1803 18.6554 69.8083 17.0153ZM32.2613 22.5263L32.2613 14.9814L32.2653 14.9814C32.2653 10.9666 29.9774 9.1523 26.7974 9.1523C24.7855 9.1523 23.0455 9.95905 21.9776 11.3074C21.0336 9.86436 19.4416 9.1523 17.5777 9.1523C15.8617 9.1523 14.3738 9.74316 13.3778 10.8681L13.3778 9.34925L9.67392 9.34925L9.67392 22.5263L13.5498 22.5263L13.5498 15.9131C13.5498 13.5611 14.7658 12.4589 16.4817 12.4589C18.0977 12.4589 19.0177 13.4361 19.0177 15.5685L19.0177 22.5263L22.8936 22.5263L22.8936 15.9131C22.8936 13.5611 24.1095 12.4589 25.8495 12.4589C27.4174 12.4589 28.3854 13.4361 28.3854 15.5685L28.3854 22.5263L32.2613 22.5263ZM47.5689 22.5301L47.5689 15.0079C47.5674 11.0184 45.2077 9.15608 41.1331 9.15608C38.9931 9.15608 36.8332 9.71665 35.3652 10.7469L36.7572 13.4171C37.7251 12.6596 39.1931 12.1937 40.6091 12.1937C42.697 12.1937 43.693 13.152 43.693 14.792L40.6091 14.792C36.5332 14.792 34.8692 16.4586 34.8692 18.7349C34.8692 21.0112 36.7332 22.727 39.8651 22.727C41.829 22.727 43.221 22.0907 43.941 20.89L43.941 22.5301L47.5689 22.5301ZM76.3481 14.7844L69.7643 14.7844C70.0363 13.0952 71.3282 12.0422 73.0682 12.0422C74.8081 12.0422 76.0761 13.1179 76.3481 14.7844ZM43.693 17.0153L43.693 18.3599C43.245 19.5606 42.125 20.1477 40.8331 20.1477C39.4651 20.1477 38.6451 19.5114 38.6451 18.5569C38.6451 17.6782 39.2171 17.0153 41.0331 17.0153L43.693 17.0153Z" fill="rgb(23.2134,0,53.971)" fill-rule="evenodd" />
</svg>
