<svg viewBox="0 0 80 80" xmlns="http://www.w3.org/2000/svg" xmlns:xlink="http://www.w3.org/1999/xlink" width="80.000000" height="80.000000" fill="none" customFrame="#000000">
	<defs>
		<clipPath id="clipPath_2">
			<rect width="40.000000" height="32.000000" x="20.000000" y="24.000000" fill="rgb(255,255,255)" />
		</clipPath>
	</defs>
	<g id="icon">
		<circle id="Ellipse 2509" cx="40" cy="40" r="40" fill="rgb(228.09,230.697,235.91)" />
		<g id="v6-icon" customFrame="url(#clipPath_2)">
			<rect id="v6-icon" width="40.000000" height="32.000000" x="20.000000" y="24.000000" />
			<path id="icon" d="M27.8125 24.5L32.1875 24.5L32.8125 27.5625C33.625 27.875 34.4375 28.3125 35.125 28.9375L37.8125 28L40 31.75L37.875 33.625C37.9375 34.0625 38 34.5625 38 35C38 35.5 37.9375 36 37.875 36.4375L40 38.3125L37.8125 42L35.125 41.125C34.4375 41.75 33.625 42.1875 32.8125 42.5L32.1875 45.5L27.8125 45.5L27.1875 42.5C26.3125 42.1875 25.5 41.75 24.8125 41.125L22.125 42L20 38.3125L22.0625 36.4375C22 36 22 35.5 22 35C22 34.5625 22 34.0625 22.0625 33.625L20 31.75L22.125 28L24.8125 28.9375C25.5 28.3125 26.3125 27.875 27.1875 27.5625L27.8125 24.5ZM33 35C33 33.9375 32.375 33 31.5 32.4375C30.5625 31.875 29.375 31.875 28.5 32.4375C27.5625 33 27 33.9375 27 35C27 36.125 27.5625 37.0625 28.5 37.625C29.375 38.1875 30.5625 38.1875 31.5 37.625C32.375 37.0625 33 36.125 33 35ZM59.5 48.1875L56.5 48.8125C56.1875 49.625 55.75 50.375 55.1875 51.0625L56.125 53.875L52.3125 56L50.375 53.875C49.9375 54 49.4375 54 49 54C48.5 54 48 54 47.5625 53.875L45.625 56L41.8125 53.875L42.75 51.0625C42.25 50.375 41.75 49.625 41.5 48.8125L38.5 48.1875L38.5 43.875L41.4375 43.25C41.75 42.4375 42.1875 41.6875 42.75 41L41.8125 38.1875L45.625 36L47.5625 38.125C48 38.0625 48.5 38 48.9375 38C49.4375 38 49.9375 38.0625 50.375 38.125L52.3125 36L56.125 38.1875L55.1875 41C55.75 41.6875 56.1875 42.4375 56.5 43.25L59.4375 43.875L59.4375 48.1875L59.5 48.1875ZM49 49C50.0625 49 51 48.4375 51.5625 47.5C52.125 46.625 52.125 45.4375 51.5625 44.5C51 43.625 50.0625 43 49 43C47.875 43 46.9375 43.625 46.375 44.5C45.8125 45.4375 45.8125 46.625 46.375 47.5C46.9375 48.4375 47.875 49 49 49Z" fill="rgb(147,85,247)" fill-rule="nonzero" />
		</g>
	</g>
</svg>
