<svg viewBox="0 0 24.0234 24" xmlns="http://www.w3.org/2000/svg" xmlns:xlink="http://www.w3.org/1999/xlink" width="24.023438" height="24.000000" fill="none" customFrame="#000000">
	<rect id="v6-icon" width="24.000000" height="24.000000" x="0.023438" y="0.000000" />
	<path id="icon" d="M12.0234 24C7.71094 24 3.77344 21.75 1.61719 18C-0.539062 14.2969 -0.539062 9.75 1.61719 6C3.77344 2.29688 7.71094 0 12.0234 0C16.2891 0 20.2266 2.29688 22.3828 6C24.5391 9.75 24.5391 14.2969 22.3828 18C20.2266 21.75 16.2891 24 12.0234 24ZM17.3203 9.79688L17.2734 9.79688L18.0703 9L16.5234 7.40625L15.7266 8.20312L10.5234 13.4531L8.32031 11.25L7.52344 10.4531L5.92969 12L6.72656 12.7969L9.72656 15.7969L10.5234 16.5938L11.3203 15.7969L17.3203 9.79688Z" fill="rgb(147,85,247)" fill-rule="nonzero" />
</svg>
