<svg viewBox="0 0 32 32" xmlns="http://www.w3.org/2000/svg" xmlns:xlink="http://www.w3.org/1999/xlink" width="32.000000" height="32.000000" fill="none" customFrame="#000000">
	<rect id="v6-icon (brands)" width="32.000000" height="32.000000" x="0.000000" y="0.000000" />
	<path id="icon" d="M32 16C32 24.1875 25.8125 30.9375 17.9375 31.9375L17.9375 20.9375L22.25 20.9375L23.125 16L17.9375 16L17.9375 14.3125C17.9375 11.6875 18.9375 10.6875 21.5625 10.6875C22.375 10.6875 23 10.75 23.375 10.75L23.375 6.375C22.6875 6.125 20.9375 5.9375 19.9375 5.9375C14.5625 5.9375 12.125 8.5 12.125 13.9375L12.125 16L8.8125 16L8.8125 20.9375L12.125 20.9375L12.125 31.5625C5.125 29.8125 0 23.5 0 16C0 7.1875 7.125 0 16 0C24.8125 0 32 7.1875 32 16Z" fill="rgb(68,26,124)" fill-rule="nonzero" />
</svg>
