<svg viewBox="0 0 28 32" xmlns="http://www.w3.org/2000/svg" xmlns:xlink="http://www.w3.org/1999/xlink" width="28.000000" height="32.000000" fill="none" customFrame="#000000">
	<rect id="v6-icon (brands)" width="28.000000" height="32.000000" x="0.000000" y="0.000000" />
	<path id="icon" d="M4 2L24 2C26.1875 2 28 3.8125 28 6L28 26C28 28.25 26.1875 30 24 30L15.9375 30L15.9375 20.9375L20.25 20.9375L21.125 16L15.9375 16L15.9375 14.3125C15.9375 11.6875 16.9375 10.6875 19.5625 10.6875C20.375 10.6875 21 10.75 21.375 10.75L21.375 6.375C20.6875 6.125 18.9375 5.9375 17.9375 5.9375C12.5625 5.9375 10.125 8.5 10.125 13.9375L10.125 16L6.8125 16L6.8125 20.9375L10.125 20.9375L10.125 30L4 30C1.75 30 0 28.25 0 26L0 6C0 3.8125 1.75 2 4 2Z" fill="rgb(152.075,161.967,178.925)" fill-rule="nonzero" />
</svg>
