<svg viewBox="0 0 28 32" xmlns="http://www.w3.org/2000/svg" xmlns:xlink="http://www.w3.org/1999/xlink" width="28.000000" height="32.000000" fill="none" customFrame="#000000">
	<path id="icon" d="M12.125 13.25C13.125 12.625 14.375 12.5 15.4375 13.0625C16.5 13.5625 17.25 14.625 17.3125 15.8125C17.375 17 16.8125 18.125 15.8125 18.8125C14.8125 19.4375 13.5625 19.5625 12.5 19C11.4375 18.5 10.75 17.4375 10.625 16.25C10.5625 15.0625 11.125 13.9375 12.125 13.25ZM21 9L21 9C21.3125 9.3125 21.625 9.6875 21.75 10.125C22.1875 11.25 22.1875 13.6875 22.1875 15.3125C22.1875 15.5625 22.1875 15.8125 22.1875 16C22.1875 16.25 22.1875 16.5 22.1875 16.75C22.1875 18.3125 22.1875 20.8125 21.75 21.9375C21.625 22.375 21.375 22.75 21 23.0625C20.6875 23.375 20.3125 23.625 19.875 23.8125C18.75 24.25 16.25 24.25 14.6875 24.25C14.4375 24.25 14.1875 24.25 14 24.25C13.75 24.25 13.5 24.25 13.25 24.25C11.6875 24.25 9.1875 24.25 8.0625 23.8125C7.625 23.625 7.25 23.375 6.9375 23.0625C6.625 22.75 6.375 22.375 6.1875 21.9375C5.75 20.8125 5.75 18.3125 5.75 16.75C5.75 16.4375 5.75 16.25 5.75 16C5.75 15.8125 5.75 15.5625 5.75 15.3125C5.75 13.75 5.75 11.25 6.1875 10.125C6.375 9.6875 6.625 9.3125 6.9375 9C7.25 8.6875 7.625 8.375 8.0625 8.25C9.1875 7.8125 11.6875 7.8125 13.25 7.8125C13.5 7.8125 13.75 7.8125 14 7.8125C14.1875 7.8125 14.4375 7.8125 14.6875 7.8125C16.25 7.8125 18.75 7.8125 19.875 8.25C20.3125 8.375 20.6875 8.6875 21 9ZM16.8125 11.75L16.8125 11.75C15.3125 10.75 13.3125 10.625 11.6875 11.4375C10.0625 12.25 9 13.875 8.875 15.6875C8.75 17.5 9.625 19.25 11.125 20.3125C12.625 21.3125 14.5625 21.4375 16.25 20.625C17.875 19.8125 18.9375 18.1875 19.0625 16.375C19.1875 14.5625 18.3125 12.8125 16.8125 11.75ZM18.625 11.6875L18.625 11.6875C18.875 11.8125 19.0625 11.875 19.3125 11.875C19.5 11.875 19.625 11.875 19.75 11.8125C19.9375 11.75 20.0625 11.625 20.1875 11.5C20.25 11.4375 20.375 11.3125 20.4375 11.125C20.5 11 20.5 10.8125 20.5 10.6875C20.5 10.4375 20.4375 10.1875 20.3125 10C20.1875 9.8125 20 9.6875 19.75 9.5625C19.5625 9.5 19.3125 9.5 19.0625 9.5C18.8125 9.5625 18.625 9.6875 18.4375 9.8125C18.3125 10 18.1875 10.1875 18.125 10.4375C18.0625 10.6875 18.125 10.9375 18.1875 11.125C18.3125 11.375 18.4375 11.5625 18.625 11.6875ZM28 6L28 26C28 28.25 26.1875 30 24 30L4 30C1.75 30 0 28.25 0 26L0 6C0 3.8125 1.75 2 4 2L24 2C26.1875 2 28 3.8125 28 6ZM22.3125 24.3125L22.3125 24.3125C23.4375 23.1875 23.8125 21.75 23.875 20.125C24 18.5 24 13.5625 23.875 11.875C23.8125 10.3125 23.4375 8.875 22.3125 7.6875C21.125 6.5625 19.6875 6.1875 18.125 6.125C16.4375 6 11.5 6 9.875 6.125C8.25 6.1875 6.8125 6.5625 5.6875 7.6875C4.5 8.875 4.125 10.3125 4.0625 11.875C3.9375 13.5625 3.9375 18.5 4.0625 20.125C4.125 21.75 4.5 23.1875 5.6875 24.3125C6.8125 25.5 8.25 25.875 9.875 25.9375C11.5 26.0625 16.4375 26.0625 18.125 25.9375C19.6875 25.875 21.125 25.5 22.3125 24.3125Z" fill="rgb(152.075,161.967,178.925)" fill-rule="nonzero" />
</svg>
