<svg viewBox="0 0 28.0312 32" xmlns="http://www.w3.org/2000/svg" xmlns:xlink="http://www.w3.org/1999/xlink" width="28.031250" height="32.000000" fill="none" customFrame="#000000">
	<rect id="v6-icon (brands)" width="28.000000" height="32.000000" x="0.031250" y="0.000000" />
	<path id="icon" d="M14.0312 8.8125C17.9688 8.8125 21.2188 12.0625 21.2188 16C21.2188 20 17.9688 23.1875 14.0312 23.1875C10.0312 23.1875 6.84375 20 6.84375 16C6.84375 12.0625 10.0312 8.8125 14.0312 8.8125ZM14.0312 20.6875C16.5938 20.6875 18.6562 18.625 18.6562 16C18.6562 13.4375 16.5938 11.375 14.0312 11.375C11.4062 11.375 9.34375 13.4375 9.34375 16C9.34375 18.625 11.4688 20.6875 14.0312 20.6875ZM23.1562 8.5625C23.1562 7.625 22.4062 6.875 21.4688 6.875C20.5312 6.875 19.7812 7.625 19.7812 8.5625C19.7812 9.5 20.5312 10.25 21.4688 10.25C22.4062 10.25 23.1562 9.5 23.1562 8.5625ZM27.9062 10.25C28.0312 12.5625 28.0312 19.5 27.9062 21.8125C27.7812 24.0625 27.2812 26 25.6562 27.6875C24.0312 29.3125 22.0312 29.8125 19.7812 29.9375C17.4688 30.0625 10.5312 30.0625 8.21875 29.9375C5.96875 29.8125 4.03125 29.3125 2.34375 27.6875C0.71875 26 0.21875 24.0625 0.09375 21.8125C-0.03125 19.5 -0.03125 12.5625 0.09375 10.25C0.21875 8 0.71875 6 2.34375 4.375C4.03125 2.75 5.96875 2.25 8.21875 2.125C10.5312 2 17.4688 2 19.7812 2.125C22.0312 2.25 24.0312 2.75 25.6562 4.375C27.2812 6 27.7812 8 27.9062 10.25ZM24.9062 24.25C25.6562 22.4375 25.4688 18.0625 25.4688 16C25.4688 14 25.6562 9.625 24.9062 7.75C24.4062 6.5625 23.4688 5.5625 22.2812 5.125C20.4062 4.375 16.0312 4.5625 14.0312 4.5625C11.9688 4.5625 7.59375 4.375 5.78125 5.125C4.53125 5.625 3.59375 6.5625 3.09375 7.75C2.34375 9.625 2.53125 14 2.53125 16C2.53125 18.0625 2.34375 22.4375 3.09375 24.25C3.59375 25.5 4.53125 26.4375 5.78125 26.9375C7.59375 27.6875 11.9688 27.5 14.0312 27.5C16.0312 27.5 20.4062 27.6875 22.2812 26.9375C23.4688 26.4375 24.4688 25.5 24.9062 24.25Z" fill="rgb(68,26,124)" fill-rule="nonzero" />
</svg>
