<svg viewBox="0 0 28 32" xmlns="http://www.w3.org/2000/svg" xmlns:xlink="http://www.w3.org/1999/xlink" width="28.000000" height="32.000000" fill="none" customFrame="#000000">
	<rect id="v6-icon (brands)" width="28.000000" height="32.000000" x="0.000000" y="0.000000" />
	<path id="icon" d="M26 2C27.0625 2 28 2.9375 28 4.0625L28 28C28 29.125 27.0625 30 26 30L1.9375 30C0.875 30 0 29.125 0 28L0 4.0625C0 2.9375 0.875 2 1.9375 2L26 2ZM8.4375 26L8.4375 26L8.4375 12.6875L4.3125 12.6875L4.3125 26L8.4375 26ZM6.375 10.8125C7.6875 10.8125 8.75 9.75 8.75 8.4375C8.75 7.125 7.6875 6 6.375 6C5 6 3.9375 7.125 3.9375 8.4375C3.9375 9.75 5 10.8125 6.375 10.8125ZM24 26L24 18.6875C24 15.125 23.1875 12.3125 19 12.3125C17 12.3125 15.625 13.4375 15.0625 14.5L15 14.5L15 12.6875L11.0625 12.6875L11.0625 26L15.1875 26L15.1875 19.4375C15.1875 17.6875 15.5 16 17.6875 16C19.8125 16 19.8125 18 19.8125 19.5L19.8125 26L24 26Z" fill="rgb(68,26,124)" fill-rule="nonzero" />
</svg>
