<svg viewBox="0 0 36 32" xmlns="http://www.w3.org/2000/svg" xmlns:xlink="http://www.w3.org/1999/xlink" width="36.000000" height="32.000000" fill="none" customFrame="#000000">
	<rect id="v6-icon (brands)" width="36.000000" height="32.000000" x="0.000000" y="0.000000" />
	<path id="icon" d="M34.3125 7.8125C35.0625 10.4375 35.0625 16.0625 35.0625 16.0625C35.0625 16.0625 35.0625 21.625 34.3125 24.3125C33.9375 25.8125 32.75 26.9375 31.3125 27.3125C28.625 28 18 28 18 28C18 28 7.3125 28 4.625 27.3125C3.1875 26.9375 2 25.8125 1.625 24.3125C0.875 21.625 0.875 16.0625 0.875 16.0625C0.875 16.0625 0.875 10.4375 1.625 7.8125C2 6.3125 3.1875 5.125 4.625 4.75C7.3125 4 18 4 18 4C18 4 28.625 4 31.3125 4.75C32.75 5.125 33.9375 6.3125 34.3125 7.8125ZM14.5 21.125L23.375 16.0625L14.5 11L14.5 21.125Z" fill="rgb(68,26,124)" fill-rule="nonzero" />
</svg>
